<svg width="159" height="165" viewBox="0 0 159 165" fill="none" xmlns="http://www.w3.org/2000/svg">
<path d="M34.5801 97.064L32.6921 98.424C32.9481 98.9573 33.3054 99.448 33.7641 99.896C34.2227 100.344 34.7614 100.701 35.3801 100.968C36.0094 101.224 36.6867 101.352 37.4121 101.352C37.9347 101.352 38.4414 101.272 38.9321 101.112C39.4334 100.963 39.8761 100.739 40.2601 100.44C40.6547 100.141 40.9641 99.7733 41.1881 99.336C41.4227 98.888 41.5401 98.3813 41.5401 97.816C41.5401 97.3467 41.4654 96.9307 41.3161 96.568C41.1667 96.2053 40.9587 95.8853 40.6921 95.608C40.4361 95.3307 40.1374 95.096 39.7961 94.904C39.4547 94.7013 39.0867 94.5253 38.6921 94.376C38.1694 94.1947 37.7214 94.024 37.3481 93.864C36.9854 93.704 36.7027 93.528 36.5001 93.336C36.3081 93.144 36.2121 92.92 36.2121 92.664C36.2121 92.4187 36.3134 92.216 36.5161 92.056C36.7187 91.8853 37.0121 91.8 37.3961 91.8C37.6841 91.8 37.9507 91.8587 38.1961 91.976C38.4521 92.0827 38.6814 92.2373 38.8841 92.44C39.0974 92.632 39.2841 92.8613 39.4441 93.128L41.5081 91.976C41.3161 91.592 41.0387 91.2133 40.6761 90.84C40.3134 90.4667 39.8547 90.1573 39.3001 89.912C38.7561 89.6667 38.1107 89.544 37.3641 89.544C36.6387 89.544 35.9774 89.672 35.3801 89.928C34.7934 90.1733 34.3241 90.536 33.9721 91.016C33.6307 91.496 33.4601 92.0667 33.4601 92.728C33.4601 93.2827 33.5614 93.7573 33.7641 94.152C33.9667 94.536 34.2227 94.8667 34.5321 95.144C34.8414 95.4107 35.1667 95.6293 35.5081 95.8C35.8601 95.9707 36.1694 96.104 36.4361 96.2C36.9801 96.4027 37.4174 96.584 37.7481 96.744C38.0787 96.904 38.3187 97.0747 38.4681 97.256C38.6174 97.4267 38.6921 97.656 38.6921 97.944C38.6921 98.2853 38.5641 98.5573 38.3081 98.76C38.0521 98.952 37.7267 99.048 37.3321 99.048C36.9587 99.048 36.6014 98.968 36.2601 98.808C35.9294 98.648 35.6201 98.4187 35.3321 98.12C35.0547 97.8213 34.8041 97.4693 34.5801 97.064ZM45.1081 98.84H51.0281L50.8521 96.776H45.3001L45.1081 98.84ZM48.0361 93.912L49.6201 97.544L49.5241 98.232L50.8681 101H53.9401L48.0361 89.096L42.1481 101H45.2041L46.5961 98.12L46.4681 97.528L48.0361 93.912ZM57.9937 95.288L61.0497 99.96L64.1217 95.288L64.7937 101H67.6417L65.8337 89.24L61.0497 96.072L56.2817 89.24L54.4737 101H57.3217L57.9937 95.288ZM72.1637 95.928L75.2997 101H78.4677L74.9637 95.928H72.1637ZM69.3637 89.8V101H72.0677V89.8H69.3637ZM71.0597 92.088H73.2517C73.6144 92.088 73.9237 92.1467 74.1797 92.264C74.4464 92.3813 74.649 92.552 74.7877 92.776C74.9264 92.9893 74.9957 93.2507 74.9957 93.56C74.9957 93.8693 74.9264 94.136 74.7877 94.36C74.649 94.5733 74.4464 94.7387 74.1797 94.856C73.9237 94.9627 73.6144 95.016 73.2517 95.016H71.0597V97.112H73.4437C74.4037 97.112 75.2037 96.9573 75.8437 96.648C76.4837 96.3387 76.969 95.912 77.2997 95.368C77.6304 94.8133 77.7957 94.1787 77.7957 93.464C77.7957 92.7387 77.6304 92.104 77.2997 91.56C76.969 91.0053 76.4837 90.5733 75.8437 90.264C75.2037 89.9547 74.4037 89.8 73.4437 89.8H71.0597V92.088ZM79.7231 89.8V101H82.4751V89.8H79.7231ZM84.8481 89.8V101H87.6321V89.8H84.8481ZM88.8481 101C90.0747 101 91.1361 100.771 92.0321 100.312C92.9281 99.8533 93.6214 99.208 94.1121 98.376C94.6027 97.5333 94.8481 96.5413 94.8481 95.4C94.8481 94.248 94.6027 93.256 94.1121 92.424C93.6214 91.592 92.9281 90.9467 92.0321 90.488C91.1361 90.0293 90.0747 89.8 88.8481 89.8H86.6401V92.2H88.7521C89.1787 92.2 89.5894 92.2533 89.9841 92.36C90.3894 92.4667 90.7414 92.6427 91.0401 92.888C91.3494 93.1333 91.5947 93.464 91.7761 93.88C91.9574 94.2853 92.0481 94.792 92.0481 95.4C92.0481 96.008 91.9574 96.52 91.7761 96.936C91.5947 97.3413 91.3494 97.6667 91.0401 97.912C90.7414 98.1573 90.3894 98.3333 89.9841 98.44C89.5894 98.5467 89.1787 98.6 88.7521 98.6H86.6401V101H88.8481ZM96.5824 89.8V101H99.3664V89.8H96.5824ZM100.582 101C101.809 101 102.87 100.771 103.766 100.312C104.662 99.8533 105.356 99.208 105.846 98.376C106.337 97.5333 106.582 96.5413 106.582 95.4C106.582 94.248 106.337 93.256 105.846 92.424C105.356 91.592 104.662 90.9467 103.766 90.488C102.87 90.0293 101.809 89.8 100.582 89.8H98.3744V92.2H100.486C100.913 92.2 101.324 92.2533 101.718 92.36C102.124 92.4667 102.476 92.6427 102.774 92.888C103.084 93.1333 103.329 93.464 103.51 93.88C103.692 94.2853 103.782 94.792 103.782 95.4C103.782 96.008 103.692 96.52 103.51 96.936C103.329 97.3413 103.084 97.6667 102.774 97.912C102.476 98.1573 102.124 98.3333 101.718 98.44C101.324 98.5467 100.913 98.6 100.486 98.6H98.3744V101H100.582ZM109.069 96.312H117.549V93.88H109.069V96.312ZM115.837 89.8V101H118.541V89.8H115.837ZM108.317 89.8V101H111.021V89.8H108.317ZM120.895 89.8V101H123.647V89.8H120.895ZM56.6621 104.8V116H58.5501V104.8H56.6621ZM57.7821 106.464H60.0381C60.6887 106.464 61.2114 106.619 61.6061 106.928C62.0007 107.227 62.1981 107.675 62.1981 108.272C62.1981 108.869 62.0007 109.323 61.6061 109.632C61.2114 109.941 60.6887 110.096 60.0381 110.096H57.7821V111.76H60.0381C60.8487 111.76 61.5527 111.621 62.1501 111.344C62.7581 111.056 63.2274 110.651 63.5581 110.128C63.8887 109.605 64.0541 108.987 64.0541 108.272C64.0541 107.557 63.8887 106.944 63.5581 106.432C63.2274 105.909 62.7581 105.509 62.1501 105.232C61.5527 104.944 60.8487 104.8 60.0381 104.8H57.7821V106.464ZM67.1676 108.64H65.4556V116H67.1676V108.64ZM69.3596 110.48L70.1916 109.024C70.0316 108.821 69.8342 108.683 69.5996 108.608C69.3649 108.523 69.1142 108.48 68.8476 108.48C68.4742 108.48 68.1116 108.613 67.7596 108.88C67.4182 109.147 67.1356 109.509 66.9116 109.968C66.6982 110.416 66.5916 110.933 66.5916 111.52L67.1676 111.856C67.1676 111.504 67.2049 111.2 67.2796 110.944C67.3649 110.677 67.4982 110.469 67.6796 110.32C67.8609 110.171 68.0956 110.096 68.3836 110.096C68.5969 110.096 68.7729 110.128 68.9116 110.192C69.0502 110.256 69.1996 110.352 69.3596 110.48ZM72.4654 113.712C72.4654 113.477 72.5188 113.28 72.6254 113.12C72.7428 112.96 72.9134 112.837 73.1374 112.752C73.3614 112.656 73.6548 112.608 74.0174 112.608C74.4334 112.608 74.8281 112.661 75.2014 112.768C75.5748 112.875 75.9268 113.045 76.2574 113.28V112.4C76.1614 112.283 75.9961 112.155 75.7614 112.016C75.5268 111.867 75.2281 111.739 74.8654 111.632C74.5134 111.525 74.0921 111.472 73.6014 111.472C72.6841 111.472 71.9748 111.685 71.4734 112.112C70.9721 112.528 70.7214 113.093 70.7214 113.808C70.7214 114.309 70.8388 114.736 71.0734 115.088C71.3081 115.44 71.6228 115.707 72.0174 115.888C72.4121 116.069 72.8388 116.16 73.2974 116.16C73.7241 116.16 74.1401 116.085 74.5454 115.936C74.9614 115.776 75.3028 115.541 75.5694 115.232C75.8468 114.912 75.9854 114.517 75.9854 114.048L75.7294 113.088C75.7294 113.451 75.6388 113.771 75.4574 114.048C75.2868 114.315 75.0574 114.517 74.7694 114.656C74.4921 114.795 74.1828 114.864 73.8414 114.864C73.5748 114.864 73.3348 114.821 73.1214 114.736C72.9188 114.651 72.7588 114.523 72.6414 114.352C72.5241 114.171 72.4654 113.957 72.4654 113.712ZM71.9214 110.56C72.0281 110.485 72.1881 110.395 72.4014 110.288C72.6254 110.171 72.8868 110.075 73.1854 110C73.4948 109.915 73.8201 109.872 74.1614 109.872C74.3854 109.872 74.5934 109.893 74.7854 109.936C74.9774 109.979 75.1428 110.048 75.2814 110.144C75.4201 110.24 75.5268 110.363 75.6014 110.512C75.6868 110.661 75.7294 110.853 75.7294 111.088V116H77.4254V110.752C77.4254 110.261 77.2921 109.851 77.0254 109.52C76.7588 109.179 76.3908 108.917 75.9214 108.736C75.4628 108.555 74.9294 108.464 74.3214 108.464C73.6388 108.464 73.0308 108.56 72.4974 108.752C71.9748 108.944 71.5481 109.141 71.2174 109.344L71.9214 110.56ZM78.2578 108.64L81.6978 116.528L83.9058 111.552L86.2098 116.528L89.6498 108.64H87.7778L86.0498 113.04L83.8898 108.08L81.8578 113.024L80.1298 108.64H78.2578ZM91.8404 113.712C91.8404 113.477 91.8938 113.28 92.0004 113.12C92.1178 112.96 92.2884 112.837 92.5124 112.752C92.7364 112.656 93.0298 112.608 93.3924 112.608C93.8084 112.608 94.2031 112.661 94.5764 112.768C94.9498 112.875 95.3018 113.045 95.6324 113.28V112.4C95.5364 112.283 95.3711 112.155 95.1364 112.016C94.9018 111.867 94.6031 111.739 94.2404 111.632C93.8884 111.525 93.4671 111.472 92.9764 111.472C92.0591 111.472 91.3498 111.685 90.8484 112.112C90.3471 112.528 90.0964 113.093 90.0964 113.808C90.0964 114.309 90.2138 114.736 90.4484 115.088C90.6831 115.44 90.9978 115.707 91.3924 115.888C91.7871 116.069 92.2138 116.16 92.6724 116.16C93.0991 116.16 93.5151 116.085 93.9204 115.936C94.3364 115.776 94.6778 115.541 94.9444 115.232C95.2218 114.912 95.3604 114.517 95.3604 114.048L95.1044 113.088C95.1044 113.451 95.0138 113.771 94.8324 114.048C94.6618 114.315 94.4324 114.517 94.1444 114.656C93.8671 114.795 93.5578 114.864 93.2164 114.864C92.9498 114.864 92.7098 114.821 92.4964 114.736C92.2938 114.651 92.1338 114.523 92.0164 114.352C91.8991 114.171 91.8404 113.957 91.8404 113.712ZM91.2964 110.56C91.4031 110.485 91.5631 110.395 91.7764 110.288C92.0004 110.171 92.2618 110.075 92.5604 110C92.8698 109.915 93.1951 109.872 93.5364 109.872C93.7604 109.872 93.9684 109.893 94.1604 109.936C94.3524 109.979 94.5178 110.048 94.6564 110.144C94.7951 110.24 94.9018 110.363 94.9764 110.512C95.0618 110.661 95.1044 110.853 95.1044 111.088V116H96.8004V110.752C96.8004 110.261 96.6671 109.851 96.4004 109.52C96.1338 109.179 95.7658 108.917 95.2964 108.736C94.8378 108.555 94.3044 108.464 93.6964 108.464C93.0138 108.464 92.4058 108.56 91.8724 108.752C91.3498 108.944 90.9231 109.141 90.5924 109.344L91.2964 110.56ZM100.543 103.52H98.8149V116H100.543V103.52ZM103.551 111.52V116H105.295V111.28C105.295 110.651 105.199 110.128 105.007 109.712C104.815 109.285 104.527 108.965 104.143 108.752C103.77 108.539 103.311 108.432 102.767 108.432C102.212 108.432 101.738 108.571 101.343 108.848C100.959 109.125 100.66 109.493 100.447 109.952C100.234 110.411 100.127 110.933 100.127 111.52H100.543C100.543 111.189 100.612 110.901 100.751 110.656C100.89 110.411 101.082 110.219 101.327 110.08C101.572 109.941 101.855 109.872 102.175 109.872C102.655 109.872 103.002 110.011 103.215 110.288C103.439 110.565 103.551 110.976 103.551 111.52Z" fill="#212031"/>
<path d="M153.144 85.5386C152.304 86.8299 149.351 88.8772 145.1 99.3567C140.85 109.836 135.753 121.605 126.794 130.847C117.836 140.089 106.643 138.657 106.643 138.657C96.538 134.986 112.327 131.175 120.085 127.27C132.642 121.193 132.638 111.615 132.638 111.615C133.761 100.408 128.433 103.849 125.641 108.36C122.85 112.871 117.484 115.692 107.246 119.453C97.0078 123.214 90.4514 126.73 90.4514 126.73C85.1037 130.299 81.4636 135.197 78.9999 140.428C76.5349 135.197 72.8962 130.299 67.5484 126.73C67.5484 126.73 60.9953 123.211 50.7539 119.453C40.5124 115.695 35.1488 112.868 32.3587 108.36C29.5685 103.852 24.2399 100.409 25.3621 111.615C25.3621 111.615 25.3621 121.193 37.9146 127.27C45.6751 131.175 61.4619 134.986 51.3566 138.657C51.3566 138.657 40.1635 140.089 31.2055 130.85C22.2474 121.612 17.1515 109.84 12.8995 99.36C8.64748 88.8805 5.69605 86.8332 4.85609 85.5419C4.01613 84.2506 -2.21186 80.4403 0.831425 90.5336C0.831425 90.5336 5.61939 102.284 7.88946 114.799C10.1595 127.314 15.8403 149.013 42.5697 160.033C69.9714 166.043 67.4321 164.916 75.3321 164.916C79.5643 164.916 76.4607 164.634 81.5393 164.916C85.7714 164.916 87.1821 164.916 87.1821 164.916C94.5178 164.916 88.3107 165.762 115.43 160.033C142.16 149.013 147.841 127.314 150.11 114.799C152.38 102.285 157.168 90.5336 157.168 90.5336C160.212 80.4403 153.985 84.246 153.144 85.5386Z" fill="#191919"/>
<path d="M79.4766 155.328C122.818 155.328 157.953 120.78 157.953 78.164C157.953 35.5475 122.818 1 79.4766 1C36.1352 1 1 35.5475 1 78.164C1 120.78 36.1352 155.328 79.4766 155.328Z" stroke="black" stroke-width="2" stroke-miterlimit="10"/>
<path d="M79.4766 149.452C119.559 149.452 152.053 117.535 152.053 78.164C152.053 38.7925 119.559 6.87558 79.4766 6.87558C39.3939 6.87558 6.9005 38.7925 6.9005 78.164C6.9005 117.535 39.3939 149.452 79.4766 149.452Z" stroke="black" stroke-width="2" stroke-miterlimit="10" stroke-dasharray="11.99 11.99"/>
<path d="M78.9117 43.467C79.1905 43.7451 79.4458 44.0456 79.6748 44.3655C79.884 44.6548 80.0774 44.9551 80.2543 45.265C80.5809 45.8376 80.8526 46.4396 81.0657 47.063C81.4584 48.2214 81.6577 49.4362 81.6556 50.6589C81.6627 51.8813 81.4659 53.0965 81.0733 54.2548C80.8602 54.8783 80.5882 55.4804 80.2609 56.0528C80.0839 56.3629 79.8895 56.6629 79.6786 56.9513C79.4485 57.2718 79.192 57.5726 78.9117 57.8507C78.6314 57.5726 78.3749 57.2718 78.1448 56.9513C77.9342 56.6627 77.7398 56.3627 77.5625 56.0528C77.2352 55.4804 76.9632 54.8783 76.7501 54.2548C76.3572 53.0962 76.1598 51.8808 76.1659 50.6579C76.1638 49.4352 76.3631 48.2205 76.7558 47.062C76.9693 46.4388 77.241 45.8368 77.5672 45.264C77.7441 44.9541 77.9375 44.6539 78.1467 44.3646C78.3767 44.0451 78.6325 43.7449 78.9117 43.467Z" fill="#109380"/>
<path d="M118.566 54.0936C118.18 54.0106 117.788 53.9593 117.393 53.9399C117.036 53.9206 116.678 53.9206 116.321 53.9399C115.66 53.9753 115.005 54.0725 114.363 54.2303C111.967 54.8336 109.833 56.1939 108.279 58.1072C107.867 58.6226 107.505 59.176 107.199 59.76C107.032 60.0759 106.884 60.4007 106.753 60.733C106.606 61.0997 106.49 61.4782 106.407 61.8643C106.794 61.949 107.186 62.0016 107.581 62.0218C107.939 62.0411 108.298 62.0411 108.655 62.0218C109.316 61.9872 109.972 61.8903 110.614 61.7323C111.805 61.4357 112.938 60.9444 113.968 60.2785C115.002 59.6199 115.922 58.7969 116.689 57.8423C117.101 57.3269 117.463 56.7742 117.77 56.1914C117.937 55.876 118.086 55.5518 118.217 55.2203C118.364 54.8548 118.48 54.478 118.566 54.0936Z" fill="#109380"/>
<path d="M100.491 50.6579C100.097 50.6889 99.7072 50.752 99.3242 50.8465C98.9762 50.9307 98.633 51.0333 98.296 51.1539C97.6739 51.3766 97.0744 51.6576 96.5055 51.993C94.3852 53.2557 92.7334 55.1692 91.7979 57.4463C91.5523 58.0577 91.3656 58.691 91.2403 59.3376C91.1724 59.6879 91.1238 60.0417 91.0944 60.3973C91.0597 60.7896 91.0578 61.1841 91.0888 61.5768C91.4834 61.5462 91.8748 61.4832 92.259 61.3882C92.6073 61.3048 92.9509 61.2028 93.2882 61.0827C93.9111 60.8606 94.5112 60.58 95.0806 60.2445C96.136 59.6184 97.0796 58.8218 97.8727 57.8875C98.6737 56.961 99.3166 55.9099 99.7759 54.7762C100.021 54.1649 100.208 53.532 100.334 52.8858C100.403 52.5358 100.452 52.1824 100.482 51.827C100.518 51.4382 100.52 51.0472 100.491 50.6579Z" fill="#109380"/>
<path d="M88.1091 50.6579C87.7583 50.8376 87.423 51.0457 87.1065 51.2802C86.8179 51.4915 86.541 51.7181 86.277 51.959C85.7898 52.404 85.346 52.894 84.9515 53.4223C83.4859 55.4032 82.7051 57.804 82.7265 60.2643C82.7373 60.9229 82.8109 61.5789 82.9461 62.2235C83.0195 62.5739 83.1118 62.9201 83.2226 63.2606C83.3435 63.6356 83.4948 64.0001 83.6752 64.3505C84.0279 64.172 84.3649 63.9641 84.6826 63.7292C84.9719 63.5185 85.2494 63.2922 85.5139 63.0514C86.0011 62.6066 86.4449 62.117 86.8394 61.589C87.5698 60.6061 88.1316 59.5095 88.5021 58.3438C88.8809 57.1808 89.0658 55.9639 89.0493 54.7413C89.0383 54.0829 88.9651 53.4269 88.8306 52.7821C88.7582 52.4318 88.6669 52.0855 88.557 51.745C88.4378 51.3711 88.288 51.0075 88.1091 50.6579Z" fill="#109380"/>
<path d="M97.0017 39.9097C96.6323 40.0483 96.2751 40.2171 95.9336 40.4141C95.6229 40.5912 95.322 40.7847 95.0323 40.994C94.4972 41.3811 94.0002 41.8177 93.5476 42.2979C92.709 43.1909 92.0232 44.2149 91.5176 45.3291C91.0037 46.4393 90.6783 47.6267 90.5547 48.843C90.4899 49.4984 90.4877 50.1585 90.5481 50.8144C90.5814 51.1699 90.6339 51.5233 90.7053 51.8732C90.7822 52.2587 90.8911 52.6371 91.031 53.0046C91.4015 52.8663 91.76 52.6979 92.1028 52.5011C92.4143 52.3248 92.7158 52.1315 93.0061 51.9222C93.5418 51.536 94.0392 51.0997 94.4916 50.6193C95.33 49.7265 96.0134 48.7012 96.514 47.5852C97.0234 46.4726 97.3462 45.2843 97.4694 44.0676C97.5345 43.4122 97.5371 42.752 97.477 42.0961C97.4446 41.7413 97.3931 41.3885 97.3226 41.0392C97.2466 40.6547 97.1393 40.2769 97.0017 39.9097Z" fill="#109380"/>
<path d="M86.9682 34.8336C86.6336 35.0433 86.317 35.2801 86.0214 35.5416C85.7533 35.7775 85.4979 36.0274 85.2564 36.2903C84.8103 36.7765 84.4115 37.3037 84.0653 37.8648C83.4246 38.9081 82.9598 40.049 82.6895 41.242C82.4113 42.4324 82.333 43.6606 82.4576 44.8765C82.5267 45.5317 82.658 46.1788 82.8496 46.8093C82.9543 47.1506 83.0772 47.4861 83.2179 47.8144C83.3713 48.1772 83.5543 48.5269 83.7651 48.86C84.0999 48.6508 84.4166 48.4143 84.712 48.1528C84.9815 47.9175 85.2378 47.6676 85.4798 47.4043C85.9262 46.918 86.3253 46.3908 86.6719 45.8297C87.3123 44.7868 87.7743 43.6453 88.0391 42.4516C88.3133 41.2599 88.3891 40.0313 88.2635 38.8151C88.1952 38.1602 88.0643 37.5134 87.8724 36.8833C87.7695 36.5419 87.6478 36.2064 87.5079 35.8782C87.3573 35.5158 87.1768 35.1664 86.9682 34.8336Z" fill="#109380"/>
<path d="M113.647 64.6117C113.289 64.4464 112.918 64.3109 112.537 64.2063C112.193 64.1092 111.844 64.0308 111.491 63.9715C110.839 63.8619 110.178 63.8137 109.517 63.8273C108.288 63.8566 107.073 64.0858 105.919 64.5061C104.763 64.9186 103.684 65.5184 102.725 66.2814C102.209 66.6943 101.733 67.1552 101.305 67.658C101.074 67.9291 100.857 68.2123 100.656 68.5065C100.433 68.8319 100.237 69.175 100.07 69.5323C100.428 69.6995 100.8 69.8367 101.181 69.9424C101.526 70.0406 101.876 70.1196 102.229 70.1791C102.881 70.2899 103.542 70.3385 104.203 70.3243C105.43 70.2946 106.644 70.0627 107.795 69.6379C108.95 69.2214 110.028 68.6191 110.987 67.855C111.503 67.4424 111.979 66.9821 112.407 66.4804C112.64 66.2096 112.857 65.9263 113.058 65.6318C113.282 65.3086 113.479 64.9674 113.647 64.6117Z" fill="#109380"/>
<path d="M103.683 60.1192C103.294 60.0582 102.899 60.0294 102.505 60.0334C102.147 60.0342 101.789 60.0547 101.434 60.0947C100.776 60.1681 100.127 60.3032 99.4956 60.4982C98.3233 60.8623 97.2191 61.4159 96.2272 62.1368C95.2298 62.8495 94.3582 63.7222 93.648 64.7192C93.2667 65.2574 92.9377 65.8303 92.6652 66.4304C92.5178 66.7557 92.3882 67.0887 92.277 67.428C92.152 67.8017 92.0586 68.1852 91.9977 68.5744C92.3881 68.6366 92.783 68.6665 93.1784 68.664C93.5368 68.6633 93.8949 68.6435 94.2512 68.6046C94.9085 68.5317 95.5575 68.3969 96.1893 68.202C97.3611 67.8372 98.464 67.2812 99.453 66.5568C100.448 65.84 101.317 64.9654 102.027 63.9678C102.409 63.4299 102.739 62.8572 103.012 62.2575C103.16 61.9332 103.29 61.6012 103.401 61.2628C103.527 60.89 103.621 60.5075 103.683 60.1192Z" fill="#109380"/>
<path d="M110.853 46.7971C110.459 46.8201 110.067 46.8756 109.682 46.963C109.333 47.0406 108.988 47.1369 108.649 47.2515C108.023 47.4625 107.418 47.7324 106.843 48.0576C104.7 49.282 103.013 51.1653 102.035 53.4251C101.777 54.0334 101.579 54.6648 101.442 55.3108C101.368 55.6598 101.313 56.0127 101.277 56.3677C101.235 56.7594 101.226 57.1539 101.249 57.5471C101.644 57.5247 102.037 57.4699 102.423 57.3831C102.773 57.3072 103.118 57.2128 103.458 57.1002C104.085 56.89 104.69 56.6203 105.266 56.2951C107.405 55.0673 109.088 53.1816 110.06 50.921C110.318 50.3144 110.517 49.6849 110.655 49.041C110.729 48.6925 110.785 48.3403 110.822 47.9859C110.865 47.5911 110.875 47.1935 110.853 46.7971Z" fill="#109380"/>
<path d="M108.676 36.8361C108.287 36.9012 107.904 36.998 107.53 37.1256C107.192 37.24 106.859 37.3722 106.534 37.5216C105.934 37.799 105.362 38.1317 104.824 38.5153C103.829 39.2311 102.957 40.1044 102.245 41.1005C101.526 42.0916 100.977 43.1946 100.62 44.3646C100.43 44.9952 100.3 45.6424 100.232 46.2974C100.196 46.6523 100.179 47.0089 100.181 47.3656C100.182 47.7596 100.216 48.1528 100.281 48.5413C100.672 48.4773 101.056 48.3811 101.43 48.2537C101.77 48.1403 102.103 48.0084 102.429 47.8587C103.029 47.5826 103.602 47.2502 104.139 46.8659C106.135 45.4163 107.606 43.3608 108.329 41.0081C108.52 40.3779 108.651 39.731 108.719 39.0763C108.756 38.7217 108.774 38.3655 108.773 38.009C108.772 37.6161 108.74 37.2238 108.676 36.8361Z" fill="#109380"/>
<path d="M97.3927 27.9463C97.0202 28.0764 96.6592 28.2369 96.3133 28.4261C95.9988 28.5962 95.6938 28.7832 95.3996 28.9862C94.8556 29.3606 94.3483 29.7856 93.8847 30.2552C92.1621 32.0192 91.0599 34.2914 90.7432 36.7315C90.6634 37.3852 90.6463 38.045 90.692 38.702C90.7169 39.058 90.7611 39.4124 90.8246 39.7636C90.8923 40.1518 90.9924 40.5337 91.1238 40.9054C91.4975 40.7757 91.8598 40.6155 92.2069 40.4264C92.5222 40.2573 92.8279 40.0709 93.1225 39.8683C93.6669 39.4942 94.1742 39.0693 94.6375 38.5992C96.3558 36.8317 97.4522 34.557 97.762 32.1164C97.8415 31.4626 97.8592 30.8029 97.815 30.1458C97.7903 29.7902 97.7467 29.4362 97.6843 29.0852C97.6188 28.6982 97.5212 28.3173 97.3927 27.9463Z" fill="#109380"/>
<path d="M79.4097 26.9054C79.1112 27.1624 78.8347 27.4437 78.5831 27.7464C78.3529 28.0194 78.138 28.3049 77.9393 28.6015C77.5712 29.1484 77.2564 29.729 76.9991 30.3354C76.5219 31.4623 76.234 32.6596 76.1469 33.8795C76.0505 35.098 76.158 36.324 76.4651 37.5074C76.6317 38.1451 76.8591 38.7654 77.1439 39.3601C77.2979 39.6836 77.4699 39.9984 77.659 40.3029C77.865 40.6391 78.0987 40.9576 78.3578 41.2552C78.6577 40.9979 78.9358 40.7163 79.1891 40.4132C79.4196 40.1403 79.6351 39.8551 79.8348 39.559C80.2034 39.0122 80.5189 38.4316 80.7769 37.8252C81.7236 35.5524 81.905 33.0353 81.2939 30.6512C81.1271 30.0141 80.9001 29.3941 80.6159 28.7995C80.4622 28.4764 80.2912 28.1616 80.1037 27.8567C79.899 27.5212 79.6669 27.203 79.4097 26.9054Z" fill="#109380"/>
<path d="M122.918 42.8975C122.524 42.8729 122.129 42.8805 121.736 42.9202C121.38 42.9547 121.026 43.0082 120.676 43.0804C120.028 43.2147 119.394 43.4091 118.782 43.6612C116.504 44.6154 114.599 46.2799 113.352 48.4046C113.023 48.9745 112.749 49.5744 112.533 50.196C112.417 50.5335 112.319 50.8772 112.24 51.2255C112.15 51.6091 112.092 51.9995 112.068 52.3927C112.463 52.4182 112.859 52.4116 113.252 52.3729C113.609 52.3385 113.964 52.2856 114.315 52.2145C114.963 52.0809 115.597 51.8868 116.209 51.6347C117.342 51.1633 118.388 50.5079 119.306 49.6953C120.229 48.8896 121.014 47.9385 121.629 46.88C121.957 46.3096 122.232 45.7099 122.448 45.0887C122.565 44.7519 122.664 44.4091 122.744 44.0619C122.834 43.6792 122.892 43.2898 122.918 42.8975Z" fill="#109380"/>
<path d="M39.3525 54.0936C39.7384 54.0106 40.1304 53.9592 40.5247 53.9399C40.882 53.9206 41.2401 53.9206 41.5974 53.9399C42.2578 53.9753 42.9134 54.0726 43.5555 54.2303C45.9509 54.8336 48.0853 56.1939 49.6388 58.1072C50.0507 58.6228 50.4124 59.1762 50.7191 59.7599C50.8856 60.0759 51.0344 60.4007 51.1651 60.7329C51.3121 61.0997 51.4277 61.4781 51.5107 61.8643C51.1243 61.9489 50.7316 62.0015 50.3366 62.0217C49.9786 62.0411 49.6199 62.0411 49.262 62.0217C48.6016 61.9871 47.9459 61.8902 47.3039 61.7323C46.113 61.4357 44.9797 60.9444 43.9503 60.2785C42.9157 59.6199 41.9964 58.7969 41.2291 57.8422C40.8176 57.3269 40.4556 56.7741 40.1479 56.1913C39.9813 55.876 39.8321 55.5518 39.701 55.2202C39.5542 54.8547 39.4376 54.4779 39.3525 54.0936Z" fill="#109380"/>
<path d="M57.4274 50.6579C57.8207 50.6889 58.2109 50.752 58.5939 50.8465C58.9419 50.9307 59.2851 51.0333 59.6221 51.1539C60.2441 51.3769 60.8436 51.6578 61.4126 51.993C62.4682 52.6178 63.4137 53.4109 64.2114 54.3406C65.0161 55.2652 65.6608 56.3167 66.1192 57.4519C66.3656 58.0632 66.5526 58.6965 66.6778 59.3432C66.7456 59.6936 66.7943 60.0473 66.8237 60.403C66.8585 60.7953 66.8601 61.1898 66.8284 61.5824C66.434 61.5518 66.0429 61.4888 65.6591 61.3939C65.3105 61.3103 64.9666 61.2083 64.6289 61.0884C64.0063 60.8665 63.4065 60.5858 62.8375 60.2502C61.7821 59.624 60.8385 58.8275 60.0453 57.8932C59.2444 56.9667 58.6015 55.9156 58.1422 54.7818C57.8969 54.1706 57.7098 53.5376 57.5836 52.8915C57.5152 52.5415 57.4658 52.188 57.4359 51.8327C57.4003 51.442 57.3974 51.0491 57.4274 50.6579Z" fill="#109380"/>
<path d="M69.809 50.6579C70.1596 50.8378 70.495 51.0459 70.8116 51.2802C71.1 51.4912 71.3766 51.7178 71.6401 51.959C72.1275 52.4038 72.5714 52.8938 72.9656 53.4223C74.4313 55.4032 75.212 57.804 75.1907 60.2643C75.1798 60.9229 75.1063 61.5789 74.971 62.2235C74.8976 62.5739 74.8053 62.9201 74.6945 63.2606C74.5737 63.6357 74.422 64.0003 74.241 64.3505C73.8888 64.1715 73.5522 63.9637 73.2345 63.7292C72.9452 63.5185 72.6677 63.2922 72.4032 63.0514C71.9158 62.6069 71.472 62.1172 71.0777 61.589C69.6168 59.6045 68.8414 57.2018 68.8678 54.7413C68.8789 54.0829 68.9518 53.427 69.0856 52.7821C69.1587 52.4318 69.2504 52.0857 69.3602 51.745C69.4797 51.371 69.6298 51.0075 69.809 50.6579Z" fill="#109380"/>
<path d="M60.9164 39.9097C61.2857 40.0483 61.6429 40.2171 61.9844 40.4141C62.2951 40.5912 62.596 40.7847 62.8858 40.994C63.4208 41.3811 63.9179 41.8177 64.3704 42.2979C66.0529 44.0997 67.1031 46.3963 67.3633 48.843C67.4281 49.4984 67.4303 50.1585 67.3699 50.8144C67.3366 51.1699 67.2841 51.5233 67.2127 51.8732C67.1358 52.2587 67.0269 52.6371 66.887 53.0046C66.5165 52.8663 66.1581 52.6979 65.8152 52.5011C65.5037 52.3248 65.2022 52.1315 64.912 51.9222C64.3763 51.536 63.8788 51.0997 63.4264 50.6193C62.5881 49.7263 61.9043 48.7011 61.4031 47.5852C60.8944 46.4724 60.572 45.2841 60.4486 44.0676C60.3832 43.4122 60.3803 42.7521 60.4401 42.0961C60.4733 41.7414 60.5251 41.3886 60.5954 41.0392C60.671 40.6546 60.7783 40.2768 60.9164 39.9097Z" fill="#109380"/>
<path d="M70.9498 34.8336C71.2844 35.0433 71.6011 35.2801 71.8967 35.5416C72.1648 35.7775 72.4202 36.0274 72.6617 36.2903C73.1077 36.7765 73.5066 37.3037 73.8528 37.8648C74.4935 38.9081 74.9583 40.049 75.2285 41.242C75.5068 42.4324 75.5851 43.6606 75.4605 44.8765C75.3914 45.5317 75.2601 46.1788 75.0685 46.8093C74.9638 47.1506 74.8409 47.4861 74.7002 47.8144C74.5469 48.1774 74.3635 48.5271 74.152 48.86C73.8174 48.6506 73.5007 48.4141 73.2052 48.1528C72.9357 47.9175 72.6794 47.6676 72.4373 47.4043C71.9907 46.9183 71.5915 46.3911 71.2453 45.8297C70.6049 44.7868 70.1428 43.6453 69.8781 42.4516C69.604 41.2598 69.5278 40.0314 69.6527 38.8151C69.7218 38.1603 69.853 37.5134 70.0447 36.8833C70.1477 36.5419 70.2694 36.2064 70.4092 35.8782C70.5602 35.5158 70.741 35.1664 70.9498 34.8336Z" fill="#109380"/>
<path d="M44.2713 64.6117C44.6293 64.4464 45.0005 64.3109 45.381 64.2063C45.7236 64.1094 46.0713 64.031 46.4225 63.9715C47.0745 63.8619 47.7355 63.8137 48.3966 63.8273C49.6251 63.8566 50.8404 64.0858 51.9945 64.5061C53.15 64.9186 54.2291 65.5184 55.1881 66.2814C55.7044 66.6943 56.18 67.1552 56.6084 67.658C56.8396 67.9291 57.0561 68.2123 57.2569 68.5065C57.4802 68.8319 57.6762 69.175 57.843 69.5323C57.4847 69.6997 57.1128 69.8369 56.7315 69.9424C56.3871 70.0407 56.0375 70.1197 55.6843 70.1791C55.0324 70.2899 54.3713 70.3385 53.7102 70.3243C52.481 70.2951 51.2652 70.0632 50.1122 69.6379C48.958 69.2211 47.8801 68.6188 46.9214 67.855C46.4056 67.4424 45.93 66.9821 45.5012 66.4804C45.269 66.2096 45.0518 65.9263 44.8507 65.6318C44.6297 65.3083 44.4358 64.9671 44.2713 64.6117Z" fill="#109380"/>
<path d="M54.2347 60.1192C54.6245 60.0582 55.0188 60.0294 55.4135 60.0334C55.7713 60.0342 56.1288 60.0547 56.4843 60.0947C57.1417 60.1681 57.7906 60.3032 58.4225 60.4982C60.7789 61.2383 62.8307 62.7194 64.27 64.7192C64.6513 65.2574 64.9804 65.8303 65.2528 66.4304C65.4003 66.7557 65.5299 67.0887 65.641 67.428C65.7661 67.8017 65.8595 68.1852 65.9203 68.5744C65.5299 68.6366 65.135 68.6665 64.7397 68.664C64.3813 68.6633 64.0232 68.6435 63.6669 68.6046C63.0095 68.5317 62.3606 68.3969 61.7288 68.202C60.557 67.8372 59.4541 67.2812 58.4651 66.5568C57.47 65.84 56.6 64.9654 55.8897 63.9678C55.5087 63.4297 55.1793 62.857 54.906 62.2575C54.7582 61.9332 54.6283 61.6012 54.5168 61.2628C54.3912 60.89 54.2969 60.5075 54.2347 60.1192Z" fill="#109380"/>
<path d="M53.8512 71.9176C54.2208 71.7841 54.6008 71.681 54.9874 71.6093C55.339 71.5425 55.6939 71.4946 56.0507 71.466C56.7097 71.413 57.3722 71.4221 58.0295 71.4934C60.4843 71.7721 62.7821 72.8357 64.5787 74.5245C65.0564 74.9804 65.4894 75.4805 65.872 76.018C66.0794 76.3091 66.2706 76.6112 66.4449 76.9231C66.6386 77.2665 66.8039 77.625 66.9391 77.9951C66.5676 78.1311 66.1854 78.2358 65.7963 78.3081C65.4444 78.3755 65.0892 78.424 64.7321 78.4533C64.0728 78.5071 63.4099 78.4982 62.7523 78.4269C61.5321 78.2915 60.3428 77.9557 59.2329 77.4332C58.1196 76.918 57.0984 76.2249 56.2097 75.3816C55.7322 74.9256 55.2989 74.4259 54.9154 73.8891C54.7087 73.5986 54.5174 73.2974 54.3426 72.9868C54.1497 72.6444 53.9853 72.2868 53.8512 71.9176Z" fill="#109380"/>
<path d="M103.996 71.8714C103.624 71.7408 103.242 71.6405 102.853 71.5716C102.501 71.5079 102.146 71.4629 101.789 71.4368C101.129 71.3893 100.467 71.4038 99.8099 71.4802C98.5907 71.6247 97.4034 71.967 96.2953 72.4937C95.1839 73.0129 94.1665 73.7119 93.2844 74.5623C92.8104 75.0218 92.3811 75.525 92.0024 76.0651C91.797 76.3581 91.6074 76.6618 91.4344 76.9749C91.2432 77.3197 91.0807 77.6795 90.9486 78.0507C91.3214 78.1833 91.7046 78.2848 92.0943 78.3543C92.4466 78.4193 92.8022 78.4653 93.1595 78.492C93.8189 78.5406 94.4815 78.5266 95.1383 78.4504C97.5905 78.1474 99.8779 77.0606 101.657 75.3533C102.132 74.8941 102.562 74.3912 102.942 73.8514C103.148 73.5594 103.337 73.2566 103.51 72.9444C103.702 72.6007 103.864 72.2418 103.996 71.8714Z" fill="#109380"/>
<path d="M47.0653 46.7971C47.4593 46.8201 47.8508 46.8756 48.2356 46.963C48.5849 47.0406 48.9297 47.1369 49.2686 47.2515C49.8951 47.4625 50.5 47.7324 51.0751 48.0576C53.2185 49.282 54.9055 51.1653 55.8831 53.4251C56.1406 54.0334 56.3391 54.6648 56.4758 55.3108C56.55 55.6598 56.6053 56.0127 56.6415 56.3677C56.683 56.7594 56.6922 57.1539 56.6689 57.5471C56.2737 57.5247 55.881 57.4699 55.4949 57.3831C55.1451 57.3072 54.7996 57.2128 54.46 57.1002C53.8331 56.89 53.2278 56.6203 52.6525 56.2951C51.5863 55.6897 50.6283 54.9123 49.8177 53.9946C48.9996 53.0825 48.3375 52.0429 47.8578 50.9172C47.6005 50.3106 47.4014 49.6811 47.2632 49.0372C47.1889 48.6887 47.133 48.3365 47.0956 47.9822C47.0531 47.5886 47.0429 47.1923 47.0653 46.7971Z" fill="#109380"/>
<path d="M49.2421 36.8361C49.6313 36.9012 50.0145 36.998 50.3877 37.1256C50.7265 37.24 51.059 37.3722 51.3838 37.5216C51.9836 37.799 52.5561 38.1317 53.0938 38.5153C54.0893 39.2309 54.9602 40.1042 55.672 41.1005C56.3914 42.0915 56.9407 43.1945 57.2976 44.3646C57.4878 44.9952 57.6178 45.6424 57.6858 46.2974C57.7219 46.6523 57.739 47.0089 57.737 47.3656C57.7358 47.7596 57.7023 48.1528 57.6366 48.5413C57.2464 48.4773 56.8623 48.3811 56.4881 48.2537C56.1482 48.1403 55.8147 48.0084 55.4892 47.8587C54.8888 47.5826 54.3163 47.2502 53.7793 46.8659C52.7835 46.1505 51.9142 45.2753 51.2067 44.276C50.4912 43.2822 49.9442 42.1782 49.5877 41.0081C49.3976 40.3777 49.2676 39.7309 49.1995 39.0763C49.1623 38.7217 49.1445 38.3655 49.1464 38.009C49.1458 37.6161 49.1778 37.2238 49.2421 36.8361Z" fill="#109380"/>
<path d="M60.5254 27.9463C60.8978 28.0766 61.2588 28.237 61.6048 28.4261C61.9191 28.5965 62.2242 28.7834 62.5185 28.9862C63.0623 29.3609 63.5695 29.7858 64.0334 30.2552C65.7559 32.0192 66.8582 34.2914 67.1749 36.7315C67.2547 37.3852 67.2718 38.045 67.2261 38.702C67.2012 39.058 67.1569 39.4124 67.0935 39.7636C67.0258 40.1518 66.9257 40.5337 66.7943 40.9054C66.4206 40.7757 66.0583 40.6155 65.7111 40.4264C65.3957 40.2571 65.0897 40.0707 64.7946 39.8683C64.2504 39.494 63.7431 39.0691 63.2797 38.5992C61.5613 36.8317 60.465 34.557 60.1552 32.1164C60.0757 31.4626 60.058 30.8029 60.1022 30.1458C60.1268 29.7902 60.1704 29.4362 60.2328 29.0852C60.2987 28.6982 60.3965 28.3172 60.5254 27.9463Z" fill="#109380"/>
<path d="M35 42.8975C35.3938 42.8729 35.789 42.8805 36.1816 42.9202C36.5377 42.9547 36.8917 43.0082 37.2421 43.0804C37.8901 43.2148 38.5241 43.4093 39.1357 43.6612C41.4136 44.6154 43.319 46.2799 44.5657 48.4046C44.8947 48.9747 45.1689 49.5745 45.3847 50.196C45.5016 50.5335 45.5996 50.8772 45.6783 51.2255C45.7683 51.6091 45.8256 51.9995 45.8496 52.3927C45.4549 52.4182 45.0588 52.4116 44.6652 52.3729C44.3085 52.3384 43.954 52.2856 43.6028 52.2145C42.9547 52.0809 42.3207 51.8868 41.7092 51.6347C40.5762 51.1633 39.5297 50.5079 38.6121 49.6953C37.6886 48.8896 36.9041 47.9385 36.2896 46.88C35.9608 46.3096 35.6863 45.7099 35.4696 45.0887C35.3526 44.752 35.254 44.4093 35.1742 44.0619C35.0843 43.6792 35.026 43.2898 35 42.8975Z" fill="#109380"/>
<path d="M37.8461 32.2276C38.2381 32.2718 38.6257 32.3481 39.005 32.4558C39.35 32.5512 39.6895 32.6655 40.0219 32.798C40.636 33.0422 41.2254 33.344 41.7821 33.6994C43.857 35.0353 45.4407 37.0054 46.2956 39.3139C46.52 39.9333 46.6846 40.5726 46.787 41.2231C46.8429 41.5756 46.8793 41.931 46.8959 42.2875C46.9167 42.681 46.9046 43.0755 46.8599 43.467C46.4666 43.424 46.0777 43.3483 45.6972 43.2408C45.3519 43.1459 45.0121 43.0323 44.6793 42.9004C44.0646 42.6567 43.4746 42.3552 42.9173 42C41.8846 41.3375 40.9692 40.5091 40.2084 39.5486C39.4408 38.5941 38.8353 37.5208 38.4161 36.3713C38.1919 35.7521 38.027 35.1132 37.9238 34.4631C37.8681 34.1111 37.8311 33.7564 37.813 33.4005C37.7913 33.0093 37.8024 32.617 37.8461 32.2276Z" fill="#109380"/>
<path d="M49.7875 23.811C50.1694 23.9113 50.5424 24.0424 50.9028 24.2032C51.2301 24.3472 51.5494 24.5086 51.8591 24.6869C52.4305 25.017 52.9694 25.3999 53.4687 25.8306C54.3958 26.6318 55.1843 27.5794 55.8026 28.6355C56.4301 29.686 56.8781 30.833 57.1282 32.0296C57.2609 32.6749 57.3319 33.3312 57.3403 33.9897C57.3442 34.3467 57.3287 34.7036 57.2939 35.0589C57.2576 35.4511 57.1889 35.8396 57.0884 36.2205C56.7055 36.1217 56.3315 35.9915 55.9702 35.8311C55.6422 35.6871 55.3221 35.526 55.0111 35.3484C54.4394 35.0191 53.9004 34.6365 53.4015 34.2057C51.5445 32.5826 50.2658 30.4039 49.7572 27.9962C49.625 27.3512 49.554 26.6953 49.5451 26.0371C49.5402 25.6805 49.5547 25.3239 49.5886 24.9688C49.6232 24.5781 49.6896 24.1909 49.7875 23.811Z" fill="#109380"/>
<path d="M68.5478 16.6946C68.864 16.9298 69.16 17.1906 69.4331 17.4743C69.6817 17.7308 69.9166 18.0002 70.1366 18.2814C70.5428 18.801 70.8985 19.3579 71.1989 19.9445C72.3132 22.1406 72.6813 24.6376 72.248 27.06C72.1271 27.7076 71.9451 28.3424 71.7045 28.956C71.573 29.288 71.4238 29.6128 71.2576 29.929C71.0763 30.2789 70.866 30.6132 70.6289 30.9284C70.3116 30.6932 70.0142 30.4324 69.7398 30.1487C69.4895 29.8933 69.2537 29.6241 69.0335 29.3426C68.6266 28.8234 68.2702 28.2668 67.9693 27.6804C66.8604 25.4815 66.4983 22.9835 66.9373 20.5621C67.0577 19.9144 67.2393 19.2796 67.4798 18.666C67.6098 18.3343 67.7577 18.0098 67.9229 17.694C68.1032 17.3443 68.3122 17.01 68.5478 16.6946Z" fill="#109380"/>
<path d="M119.971 32.2276C119.578 32.2718 119.19 32.3481 118.811 32.4558C118.466 32.5512 118.127 32.6655 117.795 32.798C117.181 33.0424 116.591 33.3442 116.034 33.6994C113.959 35.0353 112.375 37.0054 111.52 39.3139C111.296 39.9333 111.131 40.5726 111.029 41.2231C110.973 41.5757 110.937 41.931 110.92 42.2875C110.899 42.681 110.911 43.0755 110.956 43.467C111.349 43.424 111.738 43.3484 112.119 43.2408C112.464 43.1461 112.804 43.0324 113.137 42.9004C113.752 42.6567 114.342 42.3552 114.899 42C115.931 41.3377 116.847 40.5094 117.607 39.5486C118.375 38.5941 118.98 37.5208 119.4 36.3713C119.624 35.752 119.789 35.1131 119.893 34.4631C119.949 34.1124 119.986 33.7589 120.004 33.4043C120.025 33.0118 120.014 32.6183 119.971 32.2276Z" fill="#109380"/>
<path d="M108.028 23.811C107.647 23.9113 107.274 24.0424 106.914 24.2032C106.587 24.347 106.267 24.5085 105.958 24.6869C105.386 25.0167 104.847 25.3996 104.348 25.8306C102.487 27.4488 101.203 29.6247 100.69 32.0315C100.557 32.6767 100.486 33.3331 100.478 33.9916C100.474 34.3486 100.489 34.7055 100.524 35.0608C100.56 35.453 100.629 35.8415 100.729 36.2223C101.112 36.1237 101.486 35.9935 101.848 35.833C102.176 35.6894 102.496 35.5282 102.807 35.3502C103.379 35.0213 103.918 34.6386 104.416 34.2075C106.274 32.5852 107.553 30.4062 108.061 27.9981C108.193 27.3531 108.264 26.6972 108.274 26.0389C108.278 25.6823 108.263 25.3258 108.229 24.9707C108.195 24.5793 108.127 24.1914 108.028 23.811Z" fill="#109380"/>
<path d="M89.2681 16.6946C88.9513 16.9287 88.6542 17.1882 88.3799 17.4706C88.1313 17.727 87.8965 17.9964 87.6765 18.2776C87.2705 18.7974 86.9149 19.3543 86.6141 19.9407C85.5011 22.1372 85.133 24.6338 85.565 27.0562C85.6863 27.7039 85.8685 28.3387 86.1095 28.9523C86.2406 29.2843 86.3895 29.6091 86.5554 29.9253C86.7367 30.2752 86.9471 30.6095 87.1841 30.9246C87.5019 30.6899 87.7992 30.4291 88.0732 30.1449C88.3235 29.8895 88.5593 29.6204 88.7795 29.3388C89.1864 28.8196 89.5428 28.2631 89.8437 27.6766C90.9523 25.4776 91.3148 22.9799 90.8767 20.5583C90.7554 19.9109 90.5738 19.2761 90.3342 18.6623C90.2038 18.3305 90.0556 18.0061 89.8901 17.6902C89.7105 17.3419 89.5025 17.0089 89.2681 16.6946Z" fill="#109380"/>
<path d="M49.2818 70.4063C48.8851 70.3535 48.6664 70.3261 48.6664 70.3261L49.2818 70.4063Z" fill="#109380"/>
<path d="M106.991 70.4063L107.605 70.3261C107.605 70.3261 107.386 70.3535 106.991 70.4063Z" fill="#109380"/>
</svg>
