<svg width="20" height="20" viewBox="0 0 20 20" fill="none" xmlns="http://www.w3.org/2000/svg">
<path d="M9 6C9 4.93913 9.42143 3.92172 10.1716 3.17157C10.9217 2.42143 11.9391 2 13 2C14.0609 2 15.0783 2.42143 15.8284 3.17157C16.5786 3.92172 17 4.93913 17 6V14H20L16 18L12 14H15V6C15 5.46957 14.7893 4.96086 14.4142 4.58579C14.0391 4.21071 13.5304 4 13 4C12.4696 4 11.9609 4.21071 11.5858 4.58579C11.2107 4.96086 11 5.46957 11 6V14C11 15.0609 10.5786 16.0783 9.82843 16.8284C9.07828 17.5786 8.06087 18 7 18C5.93913 18 4.92172 17.5786 4.17157 16.8284C3.42143 16.0783 3 15.0609 3 14V6H0L4 2L8 6H5V14C5 14.5304 5.21071 15.0391 5.58579 15.4142C5.96086 15.7893 6.46957 16 7 16C7.53043 16 8.03914 15.7893 8.41421 15.4142C8.78929 15.0391 9 14.5304 9 14V6Z" fill="#0FA958"/>
</svg>
