<svg width="24" height="24" viewBox="0 0 24 24" fill="none" xmlns="http://www.w3.org/2000/svg">
<path d="M9.113 8.79999C9.453 8.50299 9.857 8.27399 10.303 8.13899L10.55 8.07399L10.71 8.04399L10.886 8.01899L11.066 8.00399L11.25 7.99899H18.75C19.58 7.99892 20.3785 8.31639 20.9819 8.8863C21.5853 9.45621 21.9478 10.2354 21.995 11.064L22 11.249V18.749C22.0001 19.5791 21.6824 20.3778 21.1123 20.9812C20.5422 21.5846 19.7628 21.947 18.934 21.994L18.75 21.999H11.25C10.4199 21.999 9.62117 21.6814 9.01777 21.1113C8.41436 20.5412 8.052 19.7618 8.005 18.933L8 18.75V11.25L8.003 11.101L8.017 10.911L8.043 10.72L8.079 10.534L8.138 10.311L8.218 10.075L8.305 9.87299L8.387 9.71099L8.481 9.54799L8.627 9.33099L8.721 9.20799L8.856 9.05199L8.964 8.93999L9.113 8.79999ZM15 11C14.8188 11 14.6437 11.0656 14.5071 11.1848C14.3705 11.3039 14.2816 11.4684 14.257 11.648L14.25 11.75V14.249H11.75C11.5688 14.249 11.3937 14.3146 11.2571 14.4338C11.1205 14.5529 11.0316 14.7174 11.007 14.897L11 14.999C11 15.379 11.282 15.692 11.648 15.742L11.75 15.749H14.25V18.25C14.25 18.63 14.532 18.944 14.898 18.993L15 19C15.1812 19 15.3563 18.9343 15.4929 18.8152C15.6295 18.6961 15.7183 18.5315 15.743 18.352L15.75 18.25V15.749H18.25C18.4314 15.7489 18.6066 15.6832 18.7432 15.5638C18.8798 15.4445 18.9686 15.2797 18.993 15.1L19 15C19 14.8188 18.9344 14.6436 18.8152 14.5071C18.6961 14.3705 18.5316 14.2816 18.352 14.257L18.25 14.25H15.75V11.75C15.75 11.5688 15.6844 11.3936 15.5652 11.2571C15.4461 11.1205 15.2816 11.0316 15.102 11.007L15 11ZM15.582 4.23299L15.634 4.40999L16.328 6.99799H11.25C10.6918 6.99799 10.1391 7.10795 9.62336 7.3216C9.10766 7.53524 8.6391 7.84838 8.24444 8.24314C7.84978 8.63789 7.53675 9.10653 7.32322 9.62228C7.1097 10.138 6.99987 10.6908 7 11.249V17.683C6.34982 17.6442 5.72626 17.4111 5.21009 17.0139C4.69393 16.6167 4.30894 16.0736 4.105 15.455L4.053 15.279L2.112 8.03399C1.897 7.23236 1.99683 6.37886 2.39103 5.64849C2.78522 4.91812 3.4439 4.36623 4.232 4.10599L4.41 4.05399L11.654 2.11299C12.4556 1.89799 13.3091 1.99783 14.0395 2.39202C14.7699 2.78621 15.3218 3.44489 15.582 4.23299Z" fill="#0FA958"/>
</svg>
